<?xml version="1.0" encoding="UTF-8" standalone="no"?>
<!DOCTYPE svg PUBLIC "-//W3C//DTD SVG 1.1//EN" "http://www.w3.org/Graphics/SVG/1.1/DTD/svg11.dtd">
<!-- Created with Vectornator (http://vectornator.io/) -->
<svg height="100%" stroke-miterlimit="10" style="fill-rule:nonzero;clip-rule:evenodd;stroke-linecap:round;stroke-linejoin:round;" version="1.1" viewBox="0 0 1024 1024" width="100%" xml:space="preserve" xmlns="http://www.w3.org/2000/svg" xmlns:vectornator="http://vectornator.io" xmlns:xlink="http://www.w3.org/1999/xlink">
<defs/>
<g id="Layer-1" vectornator:layerName="Layer 1">
<path d="M105.656 160.344L148.031 233.75L178.219 286.031L265.281 286.031L235.094 233.781L293.312 233.781L540.812 664.156L512.688 712.562L337.844 411.719L250.781 411.719L512.719 863.656L556.25 787.5L584.062 739.375L584.062 739.344L613.594 688.188L628.094 663.062L380.281 233.812L369.031 214.344L337.844 160.344L254.469 160.406L192.75 160.375L192.719 160.344L105.656 160.344ZM395.906 160.344L453.938 260.906L512 361.438L570.062 260.906L628.094 160.344L512 160.344L395.906 160.344ZM686.156 160.344L541.031 411.719L657.125 613.531L700.656 537.375L773.219 411.719L686.156 411.719L657.125 462L628.094 411.719L739.688 218.406L797.75 218.406L758.719 286.031L845.781 286.031L918.344 160.344L860.281 160.344L773.219 160.344L686.156 160.344Z" fill="#FFFFFF" fill-rule="nonzero" opacity="1" stroke="none" vectornator:layerName="Curve 1"/>
</g>
</svg>
