<?xml version="1.0" encoding="UTF-8" standalone="no"?>
<!-- Created with Inkscape (http://www.inkscape.org/) -->

<svg
   viewBox="0 0 48 48"
   version="1.1"
   id="svg1"
   xml:space="preserve"
   inkscape:export-filename="favicon"
   inkscape:export-xdpi="96"
   inkscape:export-ydpi="96"
   sodipodi:docname="p-icon-blue.svg"
   inkscape:version="1.3 (0e150ed6c4, 2023-07-21)"
   xmlns:inkscape="http://www.inkscape.org/namespaces/inkscape"
   xmlns:sodipodi="http://sodipodi.sourceforge.net/DTD/sodipodi-0.dtd"
   xmlns:xlink="http://www.w3.org/1999/xlink"
   xmlns="http://www.w3.org/2000/svg"
   xmlns:svg="http://www.w3.org/2000/svg"><sodipodi:namedview
     id="namedview1"
     pagecolor="#505050"
     bordercolor="#eeeeee"
     borderopacity="1"
     inkscape:showpageshadow="0"
     inkscape:pageopacity="0"
     inkscape:pagecheckerboard="0"
     inkscape:deskcolor="#505050"
     inkscape:document-units="px"
     inkscape:zoom="6.1046886"
     inkscape:cx="26.127459"
     inkscape:cy="43.327353"
     inkscape:window-width="1343"
     inkscape:window-height="981"
     inkscape:window-x="-8"
     inkscape:window-y="0"
     inkscape:window-maximized="0"
     inkscape:current-layer="layer1" /><defs
     id="defs1"><linearGradient
       id="linearGradient2"
       inkscape:collect="always"><stop
         style="stop-color:#5f7bff;stop-opacity:1;"
         offset="0"
         id="stop2" /><stop
         style="stop-color:#7fc2ff;stop-opacity:1;"
         offset="1"
         id="stop3" /></linearGradient><linearGradient
       inkscape:collect="always"
       xlink:href="#linearGradient2"
       id="linearGradient3"
       x1="-5e-07"
       y1="90"
       x2="180"
       y2="90"
       gradientUnits="userSpaceOnUse" /></defs><g
     inkscape:label="Layer 1"
     inkscape:groupmode="layer"
     id="layer1"
     style="display:inline"><rect
       style="display:none;fill:url(#linearGradient3);stroke:#ffffff;stroke-width:0;stroke-miterlimit:10"
       id="rect1"
       width="180"
       height="180"
       x="0"
       y="0" /><path
       id="rect13"
       style="display:none;fill:#000000;fill-opacity:1;fill-rule:evenodd;stroke:#ffffff;stroke-width:0;stroke-miterlimit:10"
       d="M 95.006741,32.633527 C 67.874153,32.748989 45.956374,54.807908 46.015069,81.940673 l -0.09145,44.814567 c -0.0047,2.309 1.863279,4.18462 4.172261,4.18934 7.612285,0.0175 24.921974,-0.008 24.921974,-0.008 l -0.908878,-11.06312 17.835671,10.98495 c 0,0 2.153088,0.1553 3.274458,0.17804 27.132965,-0.001 49.143395,-21.96804 49.198695,-49.100907 l -0.001,-0.413189 C 144.24509,54.389731 122.13982,32.517677 95.006741,32.633527 Z M 94.474795,59.62157 c 13.083825,-0.0564 23.743495,10.490201 23.826635,23.573878 l -3.2e-4,0.199235 C 118.27413,96.478107 107.66066,107.07023 94.577166,107.07073 81.494273,107.07096 70.880413,96.480316 70.851987,83.39745 70.823739,70.314452 81.391851,59.677828 94.474795,59.62157 Z"
       sodipodi:nodetypes="ccscccccccccscccc" /><g
       id="g2"
       transform="matrix(3.4455483,0,0,3.4455483,-116.28143,-286.10056)"
       style="display:inline"><path
         id="rect13-5-0"
         style="display:inline;fill:#3d8cdf;fill-opacity:1;fill-rule:evenodd;stroke:#ffffff;stroke-width:0;stroke-miterlimit:10"
         d="m 40.670355,83.034983 c -3.840913,0.02418 -6.937267,3.153222 -6.921121,6.994177 v 6.344074 c 0,0.326869 0.264979,0.591849 0.591846,0.591849 2.129251,4.18e-4 4.258523,-0.001 6.387767,0 3.840998,-0.008 6.950496,-3.124045 6.95048,-6.965052 l -1.3e-4,-0.05849 c -0.03227,-3.840925 -3.167858,-6.930794 -7.008842,-6.906556 z m -0.06751,3.820638 a 3.3585463,3.3585463 0 0 1 3.379759,3.330287 v 0.0282 a 3.3585463,3.3585463 0 0 1 -3.351554,3.358489 3.3585463,3.3585463 0 0 1 -3.365426,-3.344388 3.3585463,3.3585463 0 0 1 3.337221,-3.372594 z" /><text
         xml:space="preserve"
         style="font-style:normal;font-variant:normal;font-weight:normal;font-stretch:normal;font-size:23.0011px;font-family:'Baloo Bhai 2';-inkscape-font-specification:'Baloo Bhai 2, @wght=600';font-variant-ligatures:normal;font-variant-caps:normal;font-variant-numeric:normal;font-variant-east-asian:normal;font-variation-settings:'wght' 600;display:none;fill:#6e889f;fill-opacity:1;stroke:#ffffff;stroke-width:0;stroke-miterlimit:10"
         x="56.831123"
         y="97.705368"
         id="text3-6"><tspan
           sodipodi:role="line"
           id="tspan3-2"
           x="0"
           y="0"
           style="font-style:normal;font-variant:normal;font-weight:normal;font-stretch:normal;font-size:23.0011px;font-family:'Baloo Bhai 2';-inkscape-font-specification:'Baloo Bhai 2, @wght=600';font-variant-ligatures:normal;font-variant-caps:normal;font-variant-numeric:normal;font-variant-east-asian:normal;font-variation-settings:'wght' 600;fill:#6e889f;fill-opacity:1;stroke-width:0">Presenxia</tspan></text></g></g></svg>
